<?xml version="1.0" encoding="utf-8"?>
<!-- Generator: Adobe Illustrator 22.0.1, SVG Export Plug-In . SVG Version: 6.00 Build 0)  -->
<svg version="1.1" id="Lager_1" xmlns="http://www.w3.org/2000/svg" xmlns:xlink="http://www.w3.org/1999/xlink" x="0px" y="0px"
	 viewBox="0 0 365.7 144.6" style="enable-background:new 0 0 365.7 144.6;" xml:space="preserve">
<g>
	<g>
		<path d="M37.9,3.1c9.2,0,17.5,3.9,17.5,11.8c0,5.9-5,9.8-9.5,9.8c-3.9,0-7.6-2.8-6.5-7.4c3.1-0.6,4.7-3.2,4.7-6
			c0-5.2-3.6-7.5-7.6-7.5c-4.9,0-10.3,3.3-10.3,8.6C26.2,24.2,55,23.3,55,42.9C55,57,40.3,68.7,22.7,68.7
			c-15.1,0-22.5-8.8-22.5-17.8c0-8.6,6.7-15.4,15.7-15.4c7.4,0,15.4,4.4,15.4,12.2c0,5.2-3.9,9.5-10,9.5c-4.4,0-8.2-3.6-6.8-8.3
			c3.7-0.1,6.6-3.2,6.6-7.3c0-4-3.6-5.6-6.4-5.6C8.2,36.1,3.3,43,3.3,50.6c0,8.9,6.6,17.3,20.2,17.3c12.8,0,20.4-7.6,20.4-15.1
			c0-14.3-30.7-15.5-30.7-32C13.1,9.3,26.2,3.1,37.9,3.1"/>
		<path d="M77.2,24.4l-3.9,17.5l0.3,0.1c4.3-20.1,10.7-25.1,18.1-25.1c7.3,0,11.4,4.6,11.4,13c0,12.5-9.3,28.9-25.5,28.9
			c-2.2,0-3.6-0.2-5.2-0.7l0.2-0.2c9.6-0.5,16.7-20.5,16.8-32.9c0-3.2-0.7-5.6-2.3-5.6c-4.3,0-9.7,9-12.5,22.8l-3.5,17
			c-1.2,5.6-2.4,15.3,0.2,16.6L71,76c-5.6,0.8-16.3,0.5-14.2-11.9l6.9-41.3c0.2-1.5-1-2.7-3.2-2l-0.2-0.2c2.7-1.3,8.1-3,11.8-3
			C76.5,17.5,78.3,19.1,77.2,24.4"/>
		<path d="M127.1,8.5c0,3.2,2,5.8,4.8,5.8c3.5,0,6.7-3.5,6.7-7.6c0-3.2-2-5.7-4.8-5.7C130.3,0.9,127.1,4.3,127.1,8.5 M140.9,6.6
			c0,4.6-4.4,8.4-9.2,8.4c-3.9,0-6.8-2.9-6.8-6.6c0-4.6,4.4-8.3,9.2-8.3C138,0.1,140.9,3,140.9,6.6 M119,48.9c0,3.2,0.7,6.1,2.7,6.1
			c4.7,0,9.8-12,11.8-23.4l0.8-4.7c1.2-6.3,0.5-8.7-3.2-8.7C124.7,18.1,119,36.2,119,48.9 M145.4,41.8c-1.2,6.6-1.9,15.3,1.5,16.6
			l-0.2,0.2c-1.8,0.4-3.6,0.5-5.5,0.5c-6.6,0-12.4-2.8-10-12.4l2.9-11.9l-0.3-0.1C128.9,54,123,59.1,116,59.1c-8.1,0-11-7.2-11-14.3
			c0-12.3,11-27.3,25.2-27.3c7.6,0,13.7,6.6,19.3,0.3L145.4,41.8z"/>
		<path d="M166.5,58.4l-0.2,0.2c-1.4,0.4-3,0.6-4.6,0.6c-5.3,0-10.7-2.6-9-12.1l4.3-24.3c0.2-1.5-1-2.7-3.2-2l-0.2-0.2
			c2.7-1.3,8.1-3,11.8-3c4.4,0,6.2,1.6,5.1,6.9L166.3,42l0.3,0.1c5.2-19.8,10.3-25.1,18.2-25.1c6.9,0,9.9,4.3,9.9,9
			c0,5.2-3.9,10.3-10.7,10.3c-3.5,0-6.8-2.2-6.3-6.8c2.9,0,5.7-2.7,5.7-6.3c0-2.4-1.2-3.7-3-3.7c-4.8,0-9.6,9.4-12.9,22.8
			C166,47.5,163.9,57,166.5,58.4"/>
		<path d="M208.5,46.8c-1,6.6-1,9.5,2.3,9.5c7,0,20.2-13,20.2-22.9c0-3.3-1.7-5.6-4.7-5.6c-2.3,0-4.5,1.2-5.4,3.4
			c-3.9-0.2-5.9-2.6-5.9-5.9c0-5.3,4-8.5,8.3-8.5c4.7,0,9.5,3.7,9.5,12c0,16.1-15.4,30.2-29.3,30.2c-7,0-10.3-3.7-9-11.3l4-25
			c0.2-1.5-1-2.7-3.2-2l-0.2-0.2c2.7-1.3,8.1-3,11.8-3c4.4,0,5.9,1.6,5.1,6.9L208.5,46.8z"/>
		<path d="M272.8,9.4c0,2.6-2.2,4.7-4.7,4.7c-1.9,0-3.4-1.5-3.4-3.6c0-2.5,2.3-4.6,4.7-4.6C271.4,5.9,272.8,7.5,272.8,9.4
			 M257.5,9.4c0,2.6-2.2,4.7-4.7,4.7c-1.9,0-3.4-1.5-3.4-3.6c0-2.5,2.3-4.6,4.7-4.6C256.2,5.9,257.5,7.5,257.5,9.4 M247.7,48.9
			c0,3.2,0.7,6.1,2.7,6.1c4.7,0,9.8-12,11.8-23.4l0.9-4.7c1.2-6.3,0.5-8.7-3.2-8.7C253.4,18.1,247.7,36.2,247.7,48.9 M274.1,41.8
			c-1.2,6.6-1.9,15.3,1.5,16.6l-0.2,0.2c-1.8,0.4-3.6,0.5-5.5,0.5c-6.6,0-12.4-2.8-10-12.4l2.9-11.9l-0.3-0.1
			c-4.9,19.2-10.8,24.4-17.8,24.4c-8.1,0-11-7.2-11-14.3c0-12.3,11-27.3,25.2-27.3c7.6,0,13.7,6.6,19.3,0.3L274.1,41.8z"/>
		<path d="M294.5,48.9c0,3.2,0.7,6.1,2.7,6.1c4.7,0,9.8-12,11.8-23.4l0.8-4.7c1.2-6.3,0.5-8.7-3.2-8.7
			C300.2,18.1,294.5,36.2,294.5,48.9 M318.7,58.1C317,68.6,309,76,294.4,76c-6.4,0-15.3-1.4-15.3-8.4c0-4.3,3.5-7.5,7.9-7.5
			c3.2,0,6.6,2.2,6.2,6.4c-2.9,0.3-4.3,2.3-4.3,4.3c0,2.2,1.7,4.5,5.9,4.5c6,0,7.9-4.5,9.3-11.7l5.6-28.8l-0.3-0.1
			c-4.9,19.2-10.8,24.4-17.8,24.4c-8.1,0-11-7.2-11-14.3c0-12.3,11-27.3,25.2-27.3c7.6,0,13.7,6.6,19.3,0.3L318.7,58.1z"/>
		<path d="M325.4,51c0-3.9,2.9-7.4,7.2-7.4c3,0,6,1.9,5.6,5.6c-2.2,0.8-3.6,2.9-3.6,5.1c0,2.5,1.6,4.1,7.2,4.1
			c3.6,0,11.8-0.8,11.8-5.9c0-7.6-24.1-7.3-24.1-20.2c0-10.7,11.9-14.8,21.5-14.8c6.4,0,14.6,1.5,14.6,7.3c0,3.5-2.6,6.6-6.4,6.6
			c-2.6,0-5.1-1.8-4.7-5.2c1.7-0.6,3.2-2.2,3.2-4.2c0-2.6-3-3.9-7.6-3.9c-3.5,0-8.7,1.5-8.7,5.9c0,7.7,23.7,6.2,23.7,19.1
			c0,11.2-13.4,15.8-23.8,15.8C334.2,59.1,325.4,57.7,325.4,51"/>
	</g>
	<g>
		<path d="M30.8,117.7c0-3.9,2.9-7.4,7.2-7.4c3,0,6,1.9,5.6,5.6c-2.2,0.8-3.6,2.9-3.6,5.1c0,2.5,1.6,4.1,7.2,4.1
			c3.6,0,11.8-0.8,11.8-5.9c0-7.6-24.1-7.3-24.1-20.2c0-10.7,11.9-14.8,21.5-14.8c6.4,0,14.6,1.5,14.6,7.3c0,3.5-2.6,6.6-6.4,6.6
			c-2.6,0-5.1-1.8-4.7-5.2c1.7-0.6,3.2-2.2,3.2-4.2c0-2.6-3-3.9-7.6-3.9c-3.5,0-8.7,1.5-8.7,5.9c0,7.7,23.7,6.2,23.7,19.1
			c0,11.2-13.4,15.8-23.8,15.8C39.6,125.8,30.8,124.3,30.8,117.7"/>
		<path d="M93.3,84.7h5.4l-0.2,0.8h-5.3l-3.9,23.3c-1.1,6.6-1.9,15.3,1.5,16.6l-0.2,0.2c-1.1,0.2-2.4,0.3-3.8,0.3
			c-5.9,0-13.5-2.2-11.8-12.2l4.4-28.3H76l0.2-0.8c11.1,0,17.1-3.7,18.9-14.7h0.7L93.3,84.7z"/>
		<path d="M110.4,115.5c0,3.2,0.7,6.1,2.7,6.1c4.7,0,9.8-12,11.8-23.4l0.8-4.7c1.2-6.3,0.5-8.7-3.2-8.7
			C116.1,84.8,110.4,102.9,110.4,115.5 M136.8,108.4c-1.2,6.6-1.9,15.3,1.5,16.6l-0.2,0.2c-1.8,0.4-3.6,0.5-5.5,0.5
			c-6.6,0-12.4-2.8-10-12.4l2.9-11.9l-0.3-0.1c-4.9,19.2-10.8,24.4-17.8,24.4c-8.1,0-11-7.2-11-14.3c0-12.3,11-27.3,25.2-27.3
			c7.6,0,13.7,6.6,19.3,0.3L136.8,108.4z"/>
		<path d="M150,84.7c1.8-10.7,3.4-19.8,15.2-19.8c6.9,0,11.1,3.5,11.1,8.4c0,4.8-3.3,8.6-9.3,8.6c-4.4,0-8.5-4.1-6.4-8.6
			c2.6,0.5,4.9-1.2,4.9-3.8c0-1.9-0.7-3.6-3-3.6c-3.4,0-7,3.6-7,7.8c0,6.6,7.9,8,7.2,11.1h6.5l-0.2,0.8h-5.3l-6.1,38.8
			c-1.5,9.3-6.5,19.8-16.2,19.8c-6.6,0-10.4-3.5-10.4-8.3c0-5.7,4.5-8.1,8.7-8.1c4,0,7.9,2.6,7.3,7.9c-2.9-0.2-4.5,1.2-4.5,3.6
			c0,1.7,1,2.9,2.9,2.9c3.5,0,4.6-3.2,4.6-6.6c0-6.6-6.8-8.1-5.7-15l5.6-34.9h-4.1l0.2-0.8h4V84.7z"/>
		<path d="M196.8,89.8c0-3-1.9-5-4.5-5c-5.9,0-10.2,9.3-10.7,17.1c-0.5,8.2,2.5,15.4,11,15.4c3.6,0,8.3-1.2,11.9-5.5l0.5,0.2
			c-4.9,8-13,13.7-22,13.7c-9.3,0-16-6.2-16-16.5c0-13.2,11.3-25.1,25.9-25.1c6,0,14.8,1.5,14.8,8.6c0,5.7-6.6,13.2-25.6,8.2
			l0.1-0.3C192.7,101.3,196.8,95.3,196.8,89.8"/>
		<path d="M251.5,84.7h5.4l-0.2,0.8h-5.3l-3.9,23.3c-1.1,6.6-1.9,15.3,1.5,16.6l-0.2,0.2c-1.1,0.2-2.4,0.3-3.8,0.3
			c-5.9,0-13.5-2.2-11.8-12.2l4.4-28.3H229l-3.9,23.3c-1.1,6.6-1.9,15.3,1.5,16.6l-0.2,0.2c-1.1,0.2-2.4,0.3-3.8,0.3
			c-5.9,0-13.5-2.2-11.8-12.2l4.4-28.3h-3.5l0.2-0.8c11.1,0,17.1-3.7,18.9-14.7h0.7L229,84.5h5.4c13,0,17.4-5.9,19.1-16.9h0.7
			L251.5,84.7z"/>
		<path d="M284.3,89.8c0-3-1.9-5-4.5-5c-5.9,0-10.2,9.3-10.7,17.1c-0.5,8.2,2.5,15.4,11,15.4c3.6,0,8.3-1.2,11.9-5.5l0.5,0.2
			c-4.9,8-13,13.7-22,13.7c-9.3,0-16-6.2-16-16.5c0-13.2,11.3-25.1,25.9-25.1c6,0,14.8,1.5,14.8,8.6c0,5.7-6.6,13.2-25.6,8.2
			l0.1-0.3C280.2,101.3,284.3,95.3,284.3,89.8"/>
		<path d="M302.5,89.4c0.2-1.5-1-2.7-3.2-2l-0.2-0.2c2.7-1.3,8.1-3,11.8-3c4.4,0,6.2,1.6,5.1,6.9l-4.2,17.5l0.3,0.1
			c5.2-19.8,12.9-24.4,19.8-24.4c9.7,0,9,8,8.1,13.3l-1.9,11c-1.2,6.6-1.9,15.3,1.5,16.6l-0.2,0.2c-1.9,0.4-3.8,0.6-5.6,0.6
			c-6.4,0-11.7-2.8-10.2-12.5l3.1-19.1c0.5-3.6,0.5-5.9-1.3-5.9c-4.3,0-9.7,8.9-12.5,20.4c-1.3,5.3-3.5,15-0.8,16.3l-0.2,0.2
			c-2.5,0.4-4.6,0.6-6.5,0.6c-6.1,0-8.9-2.6-7.2-12.1L302.5,89.4z"/>
	</g>
</g>
</svg>
