<?xml version="1.0" encoding="UTF-8"?>
<svg enable-background="new 0 0 365.7 144.6" version="1.1" viewBox="0 0 365.7 144.6" xml:space="preserve" xmlns="http://www.w3.org/2000/svg">
<style type="text/css">
	.st0{fill:#FFFFFF;}
</style>
		<path class="st0" d="m37.9 3.1c9.2 0 17.5 3.9 17.5 11.8 0 5.9-5 9.8-9.5 9.8-3.9 0-7.6-2.8-6.5-7.4 3.1-0.6 4.7-3.2 4.7-6 0-5.2-3.6-7.5-7.6-7.5-4.9 0-10.3 3.3-10.3 8.6 0 11.8 28.8 10.9 28.8 30.5 0 14.1-14.7 25.8-32.3 25.8-15.1 0-22.5-8.8-22.5-17.8 0-8.6 6.7-15.4 15.7-15.4 7.4 0 15.4 4.4 15.4 12.2 0 5.2-3.9 9.5-10 9.5-4.4 0-8.2-3.6-6.8-8.3 3.7-0.1 6.6-3.2 6.6-7.3 0-4-3.6-5.6-6.4-5.6-6.5 0.1-11.4 7-11.4 14.6 0 8.9 6.6 17.3 20.2 17.3 12.8 0 20.4-7.6 20.4-15.1 0-14.3-30.7-15.5-30.7-32-0.1-11.5 13-17.7 24.7-17.7"/>
		<path class="st0" d="m77.2 24.4l-3.9 17.5 0.3 0.1c4.3-20.1 10.7-25.1 18.1-25.1 7.3 0 11.4 4.6 11.4 13 0 12.5-9.3 28.9-25.5 28.9-2.2 0-3.6-0.2-5.2-0.7l0.2-0.2c9.6-0.5 16.7-20.5 16.8-32.9 0-3.2-0.7-5.6-2.3-5.6-4.3 0-9.7 9-12.5 22.8l-3.5 17c-1.2 5.6-2.4 15.3 0.2 16.6l-0.3 0.2c-5.6 0.8-16.3 0.5-14.2-11.9l6.9-41.3c0.2-1.5-1-2.7-3.2-2l-0.2-0.2c2.7-1.3 8.1-3 11.8-3 4.4-0.1 6.2 1.5 5.1 6.8"/>
		<path class="st0" d="m127.1 8.5c0 3.2 2 5.8 4.8 5.8 3.5 0 6.7-3.5 6.7-7.6 0-3.2-2-5.7-4.8-5.7-3.5-0.1-6.7 3.3-6.7 7.5m13.8-1.9c0 4.6-4.4 8.4-9.2 8.4-3.9 0-6.8-2.9-6.8-6.6 0-4.6 4.4-8.3 9.2-8.3 3.9 0 6.8 2.9 6.8 6.5m-21.9 42.3c0 3.2 0.7 6.1 2.7 6.1 4.7 0 9.8-12 11.8-23.4l0.8-4.7c1.2-6.3 0.5-8.7-3.2-8.7-6.4-0.1-12.1 18-12.1 30.7m26.4-7.1c-1.2 6.6-1.9 15.3 1.5 16.6l-0.2 0.2c-1.8 0.4-3.6 0.5-5.5 0.5-6.6 0-12.4-2.8-10-12.4l2.9-11.9-0.3-0.1c-4.9 19.3-10.8 24.4-17.8 24.4-8.1 0-11-7.2-11-14.3 0-12.3 11-27.3 25.2-27.3 7.6 0 13.7 6.6 19.3 0.3l-4.1 24z"/>
		<path class="st0" d="m166.5 58.4l-0.2 0.2c-1.4 0.4-3 0.6-4.6 0.6-5.3 0-10.7-2.6-9-12.1l4.3-24.3c0.2-1.5-1-2.7-3.2-2l-0.2-0.2c2.7-1.3 8.1-3 11.8-3 4.4 0 6.2 1.6 5.1 6.9l-4.2 17.5 0.3 0.1c5.2-19.8 10.3-25.1 18.2-25.1 6.9 0 9.9 4.3 9.9 9 0 5.2-3.9 10.3-10.7 10.3-3.5 0-6.8-2.2-6.3-6.8 2.9 0 5.7-2.7 5.7-6.3 0-2.4-1.2-3.7-3-3.7-4.8 0-9.6 9.4-12.9 22.8-1.5 5.2-3.6 14.7-1 16.1"/>
		<path class="st0" d="m208.5 46.8c-1 6.6-1 9.5 2.3 9.5 7 0 20.2-13 20.2-22.9 0-3.3-1.7-5.6-4.7-5.6-2.3 0-4.5 1.2-5.4 3.4-3.9-0.2-5.9-2.6-5.9-5.9 0-5.3 4-8.5 8.3-8.5 4.7 0 9.5 3.7 9.5 12 0 16.1-15.4 30.2-29.3 30.2-7 0-10.3-3.7-9-11.3l4-25c0.2-1.5-1-2.7-3.2-2l-0.2-0.2c2.7-1.3 8.1-3 11.8-3 4.4 0 5.9 1.6 5.1 6.9l-3.5 22.4z"/>
		<path class="st0" d="m272.8 9.4c0 2.6-2.2 4.7-4.7 4.7-1.9 0-3.4-1.5-3.4-3.6 0-2.5 2.3-4.6 4.7-4.6 2 0 3.4 1.6 3.4 3.5m-15.3 0c0 2.6-2.2 4.7-4.7 4.7-1.9 0-3.4-1.5-3.4-3.6 0-2.5 2.3-4.6 4.7-4.6 2.1 0 3.4 1.6 3.4 3.5m-9.8 39.5c0 3.2 0.7 6.1 2.7 6.1 4.7 0 9.8-12 11.8-23.4l0.9-4.7c1.2-6.3 0.5-8.7-3.2-8.7-6.5-0.1-12.2 18-12.2 30.7m26.4-7.1c-1.2 6.6-1.9 15.3 1.5 16.6l-0.2 0.2c-1.8 0.4-3.6 0.5-5.5 0.5-6.6 0-12.4-2.8-10-12.4l2.9-11.9-0.3-0.1c-4.9 19.2-10.8 24.4-17.8 24.4-8.1 0-11-7.2-11-14.3 0-12.3 11-27.3 25.2-27.3 7.6 0 13.7 6.6 19.3 0.3l-4.1 24z"/>
		<path class="st0" d="m294.5 48.9c0 3.2 0.7 6.1 2.7 6.1 4.7 0 9.8-12 11.8-23.4l0.8-4.7c1.2-6.3 0.5-8.7-3.2-8.7-6.4-0.1-12.1 18-12.1 30.7m24.2 9.2c-1.7 10.5-9.7 17.9-24.3 17.9-6.4 0-15.3-1.4-15.3-8.4 0-4.3 3.5-7.5 7.9-7.5 3.2 0 6.6 2.2 6.2 6.4-2.9 0.3-4.3 2.3-4.3 4.3 0 2.2 1.7 4.5 5.9 4.5 6 0 7.9-4.5 9.3-11.7l5.6-28.8-0.3-0.1c-4.9 19.2-10.8 24.4-17.8 24.4-8.1 0-11-7.2-11-14.3 0-12.3 11-27.3 25.2-27.3 7.6 0 13.7 6.6 19.3 0.3l-6.4 40.3z"/>
		<path class="st0" d="m325.4 51c0-3.9 2.9-7.4 7.2-7.4 3 0 6 1.9 5.6 5.6-2.2 0.8-3.6 2.9-3.6 5.1 0 2.5 1.6 4.1 7.2 4.1 3.6 0 11.8-0.8 11.8-5.9 0-7.6-24.1-7.3-24.1-20.2 0-10.7 11.9-14.8 21.5-14.8 6.4 0 14.6 1.5 14.6 7.3 0 3.5-2.6 6.6-6.4 6.6-2.6 0-5.1-1.8-4.7-5.2 1.7-0.6 3.2-2.2 3.2-4.2 0-2.6-3-3.9-7.6-3.9-3.5 0-8.7 1.5-8.7 5.9 0 7.7 23.7 6.2 23.7 19.1 0 11.2-13.4 15.8-23.8 15.8-7.1 0.2-15.9-1.2-15.9-7.9"/>
		<path class="st0" d="m30.8 117.7c0-3.9 2.9-7.4 7.2-7.4 3 0 6 1.9 5.6 5.6-2.2 0.8-3.6 2.9-3.6 5.1 0 2.5 1.6 4.1 7.2 4.1 3.6 0 11.8-0.8 11.8-5.9 0-7.6-24.1-7.3-24.1-20.2 0-10.7 11.9-14.8 21.5-14.8 6.4 0 14.6 1.5 14.6 7.3 0 3.5-2.6 6.6-6.4 6.6-2.6 0-5.1-1.8-4.7-5.2 1.7-0.6 3.2-2.2 3.2-4.2 0-2.6-3-3.9-7.6-3.9-3.5 0-8.7 1.5-8.7 5.9 0 7.7 23.7 6.2 23.7 19.1 0 11.2-13.4 15.8-23.8 15.8-7.1 0.2-15.9-1.3-15.9-7.9"/>
		<path class="st0" d="m93.3 84.7h5.4l-0.2 0.8h-5.3l-3.9 23.3c-1.1 6.6-1.9 15.3 1.5 16.6l-0.2 0.2c-1.1 0.2-2.4 0.3-3.8 0.3-5.9 0-13.5-2.2-11.8-12.2l4.4-28.3h-3.4l0.2-0.8c11.1 0 17.1-3.7 18.9-14.7h0.7l-2.5 14.8z"/>
		<path class="st0" d="m110.4 115.5c0 3.2 0.7 6.1 2.7 6.1 4.7 0 9.8-12 11.8-23.4l0.8-4.7c1.2-6.3 0.5-8.7-3.2-8.7-6.4 0-12.1 18.1-12.1 30.7m26.4-7.1c-1.2 6.6-1.9 15.3 1.5 16.6l-0.2 0.2c-1.8 0.4-3.6 0.5-5.5 0.5-6.6 0-12.4-2.8-10-12.4l2.9-11.9-0.3-0.1c-4.9 19.2-10.8 24.4-17.8 24.4-8.1 0-11-7.2-11-14.3 0-12.3 11-27.3 25.2-27.3 7.6 0 13.7 6.6 19.3 0.3l-4.1 24z"/>
		<path class="st0" d="m150 84.7c1.8-10.7 3.4-19.8 15.2-19.8 6.9 0 11.1 3.5 11.1 8.4 0 4.8-3.3 8.6-9.3 8.6-4.4 0-8.5-4.1-6.4-8.6 2.6 0.5 4.9-1.2 4.9-3.8 0-1.9-0.7-3.6-3-3.6-3.4 0-7 3.6-7 7.8 0 6.6 7.9 8 7.2 11.1h6.5l-0.2 0.8h-5.3l-6.1 38.8c-1.5 9.3-6.5 19.8-16.2 19.8-6.6 0-10.4-3.5-10.4-8.3 0-5.7 4.5-8.1 8.7-8.1 4 0 7.9 2.6 7.3 7.9-2.9-0.2-4.5 1.2-4.5 3.6 0 1.7 1 2.9 2.9 2.9 3.5 0 4.6-3.2 4.6-6.6 0-6.6-6.8-8.1-5.7-15l5.6-34.9h-4.1l0.2-0.8h4z"/>
		<path class="st0" d="m196.8 89.8c0-3-1.9-5-4.5-5-5.9 0-10.2 9.3-10.7 17.1-0.5 8.2 2.5 15.4 11 15.4 3.6 0 8.3-1.2 11.9-5.5l0.5 0.2c-4.9 8-13 13.7-22 13.7-9.3 0-16-6.2-16-16.5 0-13.2 11.3-25.1 25.9-25.1 6 0 14.8 1.5 14.8 8.6 0 5.7-6.6 13.2-25.6 8.2l0.1-0.3c10.5 0.7 14.6-5.3 14.6-10.8"/>
		<path class="st0" d="m251.5 84.7h5.4l-0.2 0.8h-5.3l-3.9 23.3c-1.1 6.6-1.9 15.3 1.5 16.6l-0.2 0.2c-1.1 0.2-2.4 0.3-3.8 0.3-5.9 0-13.5-2.2-11.8-12.2l4.4-28.3h-8.6l-3.9 23.3c-1.1 6.6-1.9 15.3 1.5 16.6l-0.2 0.2c-1.1 0.2-2.4 0.3-3.8 0.3-5.9 0-13.5-2.2-11.8-12.2l4.4-28.3h-3.5l0.2-0.8c11.1 0 17.1-3.7 18.9-14.7h0.7l-2.5 14.7h5.4c13 0 17.4-5.9 19.1-16.9h0.7l-2.7 17.1z"/>
		<path class="st0" d="m284.3 89.8c0-3-1.9-5-4.5-5-5.9 0-10.2 9.3-10.7 17.1-0.5 8.2 2.5 15.4 11 15.4 3.6 0 8.3-1.2 11.9-5.5l0.5 0.2c-4.9 8-13 13.7-22 13.7-9.3 0-16-6.2-16-16.5 0-13.2 11.3-25.1 25.9-25.1 6 0 14.8 1.5 14.8 8.6 0 5.7-6.6 13.2-25.6 8.2l0.1-0.3c10.5 0.7 14.6-5.3 14.6-10.8"/>
		<path class="st0" d="m302.5 89.4c0.2-1.5-1-2.7-3.2-2l-0.2-0.2c2.7-1.3 8.1-3 11.8-3 4.4 0 6.2 1.6 5.1 6.9l-4.2 17.5 0.3 0.1c5.2-19.8 12.9-24.4 19.8-24.4 9.7 0 9 8 8.1 13.3l-1.9 11c-1.2 6.6-1.9 15.3 1.5 16.6l-0.2 0.2c-1.9 0.4-3.8 0.6-5.6 0.6-6.4 0-11.7-2.8-10.2-12.5l3.1-19.1c0.5-3.6 0.5-5.9-1.3-5.9-4.3 0-9.7 8.9-12.5 20.4-1.3 5.3-3.5 15-0.8 16.3l-0.2 0.2c-2.5 0.4-4.6 0.6-6.5 0.6-6.1 0-8.9-2.6-7.2-12.1l4.3-24.5z"/>
</svg>
