<?xml version="1.0" encoding="utf-8"?>
<!-- Generator: Adobe Illustrator 22.0.1, SVG Export Plug-In . SVG Version: 6.00 Build 0)  -->
<svg version="1.1" id="Lager_1" xmlns="http://www.w3.org/2000/svg" xmlns:xlink="http://www.w3.org/1999/xlink" x="0px" y="0px"
	 viewBox="0 0 365.5 224.7" style="enable-background:new 0 0 365.5 224.7;" xml:space="preserve">
<style type="text/css">
	.st0{fill:#FFFFFF;}
	.st1{clip-path:url(#SVGID_2_);fill:#FFFFFF;}
</style>
<g>
	<g>
		<rect x="111.9" y="163.1" class="st0" width="141.7" height="0.5"/>
	</g>
	<g>
		<rect x="111.9" y="165.5" class="st0" width="141.7" height="0.5"/>
	</g>
</g>
<g>
	<g>
		<path class="st0" d="M37.8,2.9c9.2,0,17.5,3.9,17.5,11.8c0,5.9-5,9.8-9.5,9.8c-3.9,0-7.6-2.8-6.5-7.4c3.1-0.6,4.7-3.2,4.7-6
			c0-5.2-3.6-7.5-7.6-7.5C31.4,3.6,26,6.9,26,12.3c0,11.8,28.8,10.9,28.8,30.5c0,14.1-14.7,25.8-32.3,25.8C7.4,68.6,0,59.8,0,50.7
			c0-8.6,6.7-15.4,15.7-15.4c7.4,0,15.4,4.4,15.4,12.2c0,5.2-3.9,9.5-10,9.5c-4.4,0-8.2-3.6-6.8-8.3c3.7-0.1,6.6-3.2,6.6-7.3
			c0-4-3.6-5.6-6.4-5.6C8.1,36,3.2,42.9,3.2,50.5c0,8.9,6.6,17.3,20.2,17.3c12.8,0,20.4-7.6,20.4-15.1c0-14.3-30.7-15.5-30.7-32
			C13,9.1,26.1,2.9,37.8,2.9"/>
		<path class="st0" d="M77.1,24.2l-3.9,17.5l0.3,0.1c4.3-20.1,10.7-25.1,18.1-25.1c7.3,0,11.4,4.6,11.4,13
			c0,12.5-9.3,28.9-25.5,28.9c-2.2,0-3.6-0.2-5.2-0.7l0.2-0.2c9.6-0.5,16.7-20.5,16.8-32.9c0-3.2-0.7-5.6-2.3-5.6
			c-4.3,0-9.7,9-12.5,22.8l-3.5,17c-1.2,5.6-2.4,15.3,0.2,16.6l-0.2,0.2c-5.6,0.8-16.3,0.5-14.2-11.9l6.9-41.3c0.2-1.5-1-2.7-3.2-2
			l-0.2-0.2c2.7-1.3,8.1-3,11.8-3C76.4,17.4,78.2,19,77.1,24.2"/>
		<path class="st0" d="M127,8.3c0,3.2,2,5.8,4.8,5.8c3.5,0,6.7-3.5,6.7-7.6c0-3.2-2-5.7-4.8-5.7C130.2,0.8,127,4.2,127,8.3
			 M140.8,6.5c0,4.6-4.4,8.4-9.2,8.4c-3.9,0-6.8-2.9-6.8-6.6c0-4.6,4.4-8.3,9.2-8.3C137.9,0,140.8,2.9,140.8,6.5 M118.9,48.7
			c0,3.2,0.7,6.1,2.7,6.1c4.7,0,9.8-12,11.8-23.4l0.8-4.7c1.2-6.3,0.5-8.7-3.2-8.7C124.6,18,118.9,36.1,118.9,48.7 M145.3,41.6
			c-1.2,6.6-1.9,15.3,1.5,16.6l-0.2,0.2c-1.8,0.4-3.6,0.5-5.5,0.5c-6.6,0-12.4-2.8-10-12.4l2.9-11.9l-0.3-0.1
			C128.8,53.8,122.9,59,115.9,59c-8.1,0-11-7.2-11-14.3c0-12.3,11-27.3,25.2-27.3c7.6,0,13.7,6.6,19.3,0.3L145.3,41.6z"/>
		<path class="st0" d="M166.4,58.2l-0.2,0.2c-1.4,0.4-3,0.6-4.6,0.6c-5.3,0-10.7-2.6-9-12.1l4.3-24.3c0.2-1.5-1-2.7-3.2-2l-0.2-0.2
			c2.7-1.3,8.1-3,11.8-3c4.4,0,6.2,1.6,5.1,6.9l-4.2,17.5l0.3,0.1c5.2-19.8,10.3-25.1,18.2-25.1c6.9,0,9.9,4.3,9.9,9
			c0,5.2-3.9,10.3-10.7,10.3c-3.5,0-6.8-2.2-6.3-6.8c2.9,0,5.7-2.7,5.7-6.3c0-2.4-1.2-3.7-3-3.7c-4.8,0-9.6,9.4-12.9,22.8
			C165.9,47.3,163.8,56.9,166.4,58.2"/>
		<path class="st0" d="M208.4,46.6c-1,6.6-1,9.5,2.3,9.5c7,0,20.2-13,20.2-22.9c0-3.3-1.7-5.6-4.7-5.6c-2.3,0-4.5,1.2-5.4,3.4
			c-3.9-0.2-5.9-2.6-5.9-5.9c0-5.3,4-8.5,8.3-8.5c4.7,0,9.5,3.7,9.5,12c0,16.1-15.4,30.2-29.3,30.2c-7,0-10.3-3.7-9-11.3l4-25
			c0.2-1.5-1-2.7-3.2-2l-0.2-0.2c2.7-1.3,8.1-3,11.8-3c4.4,0,5.9,1.6,5.1,6.9L208.4,46.6z"/>
		<path class="st0" d="M272.7,9.3c0,2.6-2.2,4.7-4.7,4.7c-1.9,0-3.4-1.5-3.4-3.6c0-2.5,2.3-4.6,4.7-4.6
			C271.3,5.7,272.7,7.3,272.7,9.3 M257.4,9.3c0,2.6-2.2,4.7-4.7,4.7c-1.9,0-3.4-1.5-3.4-3.6c0-2.5,2.3-4.6,4.7-4.6
			C256,5.7,257.4,7.3,257.4,9.3 M247.6,48.7c0,3.2,0.7,6.1,2.7,6.1c4.7,0,9.8-12,11.8-23.4l0.9-4.7c1.2-6.3,0.5-8.7-3.2-8.7
			C253.3,18,247.6,36.1,247.6,48.7 M274,41.6c-1.2,6.6-1.9,15.3,1.5,16.6l-0.2,0.2c-1.8,0.4-3.6,0.5-5.5,0.5
			c-6.6,0-12.4-2.8-10-12.4l2.9-11.9l-0.3-0.1C257.5,53.8,251.6,59,244.6,59c-8.1,0-11-7.2-11-14.3c0-12.3,11-27.3,25.2-27.3
			c7.6,0,13.7,6.6,19.3,0.3L274,41.6z"/>
		<path class="st0" d="M294.4,48.7c0,3.2,0.7,6.1,2.7,6.1c4.7,0,9.8-12,11.8-23.4l0.8-4.7c1.2-6.3,0.5-8.7-3.2-8.7
			C300.1,18,294.4,36.1,294.4,48.7 M318.6,57.9c-1.7,10.6-9.7,17.9-24.3,17.9c-6.4,0-15.3-1.4-15.3-8.4c0-4.3,3.5-7.5,7.9-7.5
			c3.2,0,6.6,2.2,6.2,6.4c-2.9,0.3-4.3,2.3-4.3,4.3c0,2.2,1.7,4.5,5.9,4.5c6,0,7.9-4.5,9.3-11.7l5.6-28.8l-0.3-0.1
			C304.3,53.8,298.4,59,291.4,59c-8.1,0-11-7.2-11-14.3c0-12.3,11-27.3,25.2-27.3c7.6,0,13.7,6.6,19.3,0.3L318.6,57.9z"/>
		<path class="st0" d="M325.3,50.9c0-3.9,2.9-7.4,7.2-7.4c3,0,6,1.9,5.6,5.6c-2.2,0.8-3.6,2.9-3.6,5.1c0,2.5,1.6,4.1,7.2,4.1
			c3.6,0,11.8-0.8,11.8-5.9c0-7.6-24.1-7.3-24.1-20.2c0-10.7,11.9-14.8,21.5-14.8c6.4,0,14.6,1.5,14.6,7.3c0,3.5-2.6,6.6-6.4,6.6
			c-2.6,0-5.1-1.8-4.7-5.2c1.7-0.6,3.2-2.2,3.2-4.2c0-2.6-3-3.9-7.6-3.9c-3.5,0-8.7,1.5-8.7,5.9c0,7.7,23.7,6.2,23.7,19.1
			c0,11.2-13.4,15.8-23.8,15.8C334.1,59,325.3,57.5,325.3,50.9"/>
	</g>
	<g>
		<path class="st0" d="M30.7,117.6c0-3.9,2.9-7.4,7.2-7.4c3,0,6,1.9,5.6,5.6c-2.2,0.8-3.6,2.9-3.6,5.1c0,2.5,1.6,4.1,7.2,4.1
			c3.6,0,11.8-0.8,11.8-5.9c0-7.6-24.1-7.3-24.1-20.2C34.7,88.2,46.6,84,56.2,84c6.4,0,14.6,1.5,14.6,7.3c0,3.5-2.6,6.6-6.4,6.6
			c-2.6,0-5.1-1.8-4.7-5.2c1.7-0.6,3.2-2.2,3.2-4.2c0-2.6-3-3.9-7.6-3.9c-3.5,0-8.7,1.5-8.7,5.9c0,7.7,23.7,6.2,23.7,19.1
			c0,11.2-13.4,15.8-23.8,15.8C39.5,125.7,30.7,124.2,30.7,117.6"/>
		<path class="st0" d="M93.2,84.6h5.4l-0.2,0.8h-5.3l-3.9,23.3c-1.1,6.6-1.9,15.3,1.5,16.6l-0.2,0.2c-1.1,0.2-2.4,0.3-3.8,0.3
			c-5.9,0-13.5-2.2-11.8-12.2l4.4-28.3h-3.5l0.2-0.8c11.1,0,17.1-3.7,18.9-14.7h0.7L93.2,84.6z"/>
		<path class="st0" d="M110.3,115.4c0,3.2,0.7,6.1,2.7,6.1c4.7,0,9.8-12,11.8-23.4l0.8-4.7c1.2-6.3,0.5-8.7-3.2-8.7
			C116,84.7,110.3,102.7,110.3,115.4 M136.7,108.3c-1.2,6.6-1.9,15.3,1.5,16.6l-0.2,0.2c-1.8,0.4-3.6,0.5-5.5,0.5
			c-6.6,0-12.4-2.8-10-12.4l2.9-11.9l-0.3-0.1c-4.9,19.2-10.8,24.4-17.8,24.4c-8.1,0-11-7.2-11-14.3c0-12.3,11-27.3,25.2-27.3
			c7.6,0,13.7,6.6,19.3,0.3L136.7,108.3z"/>
		<path class="st0" d="M149.9,84.6c1.8-10.7,3.4-19.8,15.2-19.8c6.9,0,11.1,3.5,11.1,8.4c0,4.8-3.3,8.6-9.3,8.6
			c-4.4,0-8.5-4.1-6.4-8.6c2.6,0.5,4.9-1.2,4.9-3.8c0-1.9-0.7-3.6-3-3.6c-3.4,0-7,3.6-7,7.8c0,6.6,7.9,8,7.2,11.1h6.5l-0.2,0.8h-5.3
			l-6.1,38.8c-1.5,9.3-6.5,19.8-16.2,19.8c-6.6,0-10.4-3.5-10.4-8.3c0-5.7,4.5-8.1,8.7-8.1c4,0,7.9,2.6,7.3,7.9
			c-2.9-0.2-4.5,1.2-4.5,3.6c0,1.7,1,2.9,2.9,2.9c3.5,0,4.6-3.2,4.6-6.6c0-6.6-6.8-8.1-5.7-15l5.6-34.9h-4.1l0.2-0.8H149.9z"/>
		<path class="st0" d="M196.7,89.7c0-3-1.9-5-4.5-5c-5.9,0-10.2,9.3-10.7,17.1c-0.5,8.2,2.5,15.4,11,15.4c3.6,0,8.3-1.2,11.9-5.5
			l0.5,0.2c-4.9,8-13,13.7-22,13.7c-9.3,0-16-6.2-16-16.5c0-13.2,11.3-25.1,25.9-25.1c6,0,14.8,1.5,14.8,8.6
			c0,5.7-6.6,13.2-25.6,8.2l0.1-0.3C192.6,101.1,196.7,95.2,196.7,89.7"/>
		<path class="st0" d="M251.4,84.6h5.4l-0.2,0.8h-5.3l-3.9,23.3c-1.1,6.6-1.9,15.3,1.5,16.6l-0.2,0.2c-1.1,0.2-2.4,0.3-3.8,0.3
			c-5.9,0-13.5-2.2-11.8-12.2l4.4-28.3h-8.6l-3.9,23.3c-1.1,6.6-1.9,15.3,1.5,16.6l-0.2,0.2c-1.1,0.2-2.4,0.3-3.8,0.3
			c-5.9,0-13.5-2.2-11.8-12.2l4.4-28.3h-3.5l0.2-0.8c11.1,0,17.1-3.7,18.9-14.7h0.7L229,84.6h5.4c13,0,17.4-5.9,19.1-16.9h0.7
			L251.4,84.6z"/>
		<path class="st0" d="M284.2,89.7c0-3-1.9-5-4.5-5c-5.9,0-10.2,9.3-10.7,17.1c-0.5,8.2,2.5,15.4,11,15.4c3.6,0,8.3-1.2,11.9-5.5
			l0.5,0.2c-4.9,8-13,13.7-22,13.7c-9.3,0-16-6.2-16-16.5c0-13.2,11.3-25.1,25.9-25.1c6,0,14.8,1.5,14.8,8.6
			c0,5.7-6.6,13.2-25.6,8.2l0.1-0.3C280.1,101.1,284.2,95.2,284.2,89.7"/>
		<path class="st0" d="M302.4,89.3c0.2-1.5-1-2.7-3.2-2l-0.2-0.2c2.7-1.3,8.1-3,11.8-3c4.4,0,6.2,1.6,5.1,6.9l-4.2,17.5l0.3,0.1
			c5.2-19.8,12.9-24.4,19.8-24.4c9.7,0,9,8,8.1,13.3l-1.9,11c-1.2,6.6-1.9,15.3,1.5,16.6l-0.2,0.2c-1.9,0.4-3.8,0.6-5.6,0.6
			c-6.4,0-11.7-2.8-10.2-12.5l3.1-19.1c0.5-3.6,0.5-5.9-1.3-5.9c-4.3,0-9.7,8.9-12.5,20.4c-1.3,5.3-3.5,15-0.8,16.3l-0.2,0.2
			c-2.5,0.4-4.6,0.6-6.5,0.6c-6.1,0-8.9-2.6-7.2-12.1L302.4,89.3z"/>
	</g>
</g>
<g>
	<g>
		<rect x="111.9" y="221.9" class="st0" width="141.7" height="0.5"/>
	</g>
	<g>
		<rect x="111.9" y="224.2" class="st0" width="141.7" height="0.5"/>
	</g>
</g>
<g>
	<defs>
		<rect id="SVGID_1_" x="35.2" y="186.5" width="295.8" height="21.5"/>
	</defs>
	<clipPath id="SVGID_2_">
		<use xlink:href="#SVGID_1_"  style="overflow:visible;"/>
	</clipPath>
	<path class="st1" d="M327.3,193.6c-0.4,0.4-0.8,0.6-1.3,0.6c-0.5,0-1-0.2-1.4-0.6c-0.4-0.4-0.5-1.1-0.5-2c0-0.9,0.2-1.6,0.5-2
		c0.3-0.4,0.8-0.6,1.3-0.6c0.5,0,1,0.2,1.4,0.7c0.4,0.5,0.6,1.2,0.6,2.1C327.9,192.5,327.7,193.2,327.3,193.6 M323,200.4
		c0.7,0.6,1.6,0.9,2.7,0.9c1.6,0,2.8-0.6,3.8-1.7c1-1.2,1.5-3,1.5-5.7c0-2.6-0.5-4.4-1.4-5.5c-0.9-1.1-2.1-1.7-3.6-1.7
		c-1.3,0-2.4,0.4-3.3,1.3c-0.9,0.9-1.3,2.1-1.3,3.5c0,1.4,0.4,2.5,1.2,3.4s1.8,1.3,2.9,1.3c1,0,1.9-0.4,2.6-1.2
		c-0.1,1.6-0.4,2.7-0.8,3.2c-0.4,0.5-0.9,0.8-1.4,0.8c-0.4,0-0.8-0.1-1.1-0.4c-0.3-0.3-0.4-0.7-0.5-1.2l-2.7,0.3
		C321.9,198.9,322.3,199.8,323,200.4 M311.5,186.7h-2.2c-0.3,0.9-0.9,1.6-1.7,2.3c-0.8,0.7-1.6,1.1-2.3,1.3v2.5
		c1.4-0.4,2.5-1.1,3.5-2.1V201h2.7V186.7z M292.9,189.3c0.3,0.2,0.5,0.6,0.6,1.3c0.2,0.6,0.3,1.8,0.3,3.5c0,1.7-0.1,2.9-0.3,3.6
		c-0.1,0.5-0.3,0.9-0.6,1.1c-0.3,0.2-0.6,0.3-0.9,0.3c-0.3,0-0.6-0.1-0.9-0.3c-0.3-0.2-0.5-0.6-0.6-1.3c-0.2-0.6-0.3-1.8-0.3-3.5
		c0-1.7,0.1-2.9,0.3-3.6c0.1-0.5,0.3-0.9,0.6-1.1c0.3-0.2,0.6-0.3,0.9-0.3C292.3,188.9,292.6,189.1,292.9,189.3 M288.8,188.1
		c-0.9,1.2-1.4,3.1-1.4,5.8c0,2.7,0.4,4.7,1.3,5.7s2,1.6,3.4,1.6c1.4,0,2.5-0.5,3.2-1.5c0.9-1.2,1.4-3.1,1.4-5.8
		c0-2.7-0.5-4.7-1.4-5.8c-0.8-1-1.9-1.5-3.3-1.5C290.6,186.7,289.5,187.2,288.8,188.1 M274.1,198.5c0.1-0.2,0.3-0.5,0.6-0.8
		c0.2-0.3,0.8-0.8,1.6-1.6c0.9-0.8,1.5-1.4,1.8-1.8c0.5-0.6,0.9-1.2,1.1-1.8c0.2-0.6,0.3-1.2,0.3-1.8c0-1.1-0.4-2.1-1.2-2.8
		c-0.8-0.8-1.9-1.1-3.3-1.1c-1.3,0-2.4,0.3-3.2,1c-0.9,0.7-1.4,1.7-1.5,3.3l2.7,0.3c0.1-0.8,0.2-1.4,0.6-1.7
		c0.3-0.3,0.8-0.5,1.4-0.5c0.6,0,1,0.2,1.4,0.5c0.3,0.3,0.5,0.8,0.5,1.4c0,0.6-0.2,1.1-0.6,1.7c-0.3,0.4-1,1.2-2.3,2.3
		c-1.5,1.4-2.6,2.6-3.1,3.4c-0.5,0.9-0.8,1.8-0.9,2.7h9.6v-2.5H274.1z M241.8,189.2h2.3c1.2,0,1.9,0,2.1,0c0.5,0.1,0.8,0.3,1.1,0.6
		c0.3,0.3,0.4,0.7,0.4,1.2c0,0.4-0.1,0.8-0.3,1.1c-0.2,0.3-0.5,0.5-0.8,0.6c-0.3,0.1-1.2,0.2-2.6,0.2h-2.1V189.2z M241.8,201v-6h0.6
		c0.7,0,1.1,0.1,1.5,0.2c0.3,0.1,0.6,0.3,0.9,0.6c0.3,0.3,0.8,1,1.5,2.1l2.1,3.1h3.5l-1.7-2.8c-0.7-1.1-1.2-1.9-1.6-2.3
		c-0.4-0.4-0.9-0.8-1.5-1.2c1.3-0.2,2.2-0.6,2.8-1.3c0.6-0.7,0.9-1.6,0.9-2.7c0-0.8-0.2-1.6-0.6-2.3c-0.4-0.7-1-1.1-1.7-1.4
		c-0.7-0.3-1.8-0.4-3.3-0.4h-6.1V201H241.8z M230.4,201v-2.4h-8v-3.9h7.2v-2.4h-7.2v-3.2h7.7v-2.4h-10.6V201H230.4z M204.3,194.8
		c1.3,0,2.2,0.1,2.6,0.2c0.4,0.1,0.7,0.4,0.9,0.7c0.2,0.3,0.3,0.7,0.3,1.1c0,0.5-0.1,0.9-0.4,1.2c-0.3,0.3-0.6,0.5-1,0.6
		c-0.3,0.1-0.9,0.1-2,0.1H202v-3.8H204.3z M203.6,189.1c1.4,0,2.2,0,2.5,0c0.5,0.1,0.8,0.2,1.1,0.5c0.2,0.3,0.4,0.6,0.4,1.1
		c0,0.5-0.1,0.8-0.4,1.1c-0.3,0.3-0.7,0.5-1.2,0.5c-0.3,0-1,0-2.1,0H202v-3.3H203.6z M199.1,201h4.9c1.8,0,3,0,3.5-0.1
		c0.8-0.1,1.4-0.3,1.9-0.7c0.5-0.4,0.9-0.9,1.2-1.5c0.3-0.6,0.5-1.2,0.5-1.9c0-0.8-0.2-1.5-0.7-2.2c-0.5-0.6-1.1-1-2-1.3
		c0.6-0.3,1.1-0.7,1.5-1.3c0.4-0.6,0.5-1.2,0.5-1.8c0-0.6-0.1-1.2-0.4-1.7c-0.3-0.5-0.7-0.9-1.1-1.2c-0.4-0.3-0.9-0.5-1.5-0.6
		c-0.6-0.1-1.4-0.1-2.5-0.1h-5.7V201z M179.1,201v-11.3l2.8,11.3h2.8l2.8-11.3V201h2.7v-14.3h-4.3l-2.6,9.8l-2.6-9.8h-4.3V201H179.1
		z M168,201v-2.4h-8v-3.9h7.2v-2.4H160v-3.2h7.7v-2.4h-10.6V201H168z M145,201v-11.9h4.2v-2.4h-11.4v2.4h4.2V201H145z M123.8,189.2
		c1,0,1.7,0,2.1,0.1c0.5,0.1,0.9,0.3,1.2,0.6c0.3,0.3,0.5,0.8,0.5,1.3c0,0.4-0.1,0.8-0.3,1.1c-0.2,0.3-0.5,0.6-0.9,0.7
		c-0.4,0.1-1.1,0.2-2.3,0.2h-1.6v-4.1H123.8z M122.4,201v-5.4h1.9c1.3,0,2.3-0.1,3-0.2c0.5-0.1,1-0.3,1.5-0.7
		c0.5-0.3,0.9-0.8,1.2-1.4s0.5-1.3,0.5-2.2c0-1.1-0.3-2.1-0.8-2.8c-0.6-0.7-1.2-1.2-2.1-1.4c-0.5-0.1-1.7-0.2-3.4-0.2h-4.6V201
		H122.4z M111.1,201v-2.4h-8v-3.9h7.2v-2.4h-7.2v-3.2h7.7v-2.4h-10.6V201H111.1z M81.8,200c1,0.8,2.4,1.3,4.2,1.3
		c1.2,0,2.3-0.2,3.1-0.5c0.8-0.3,1.5-0.9,1.9-1.6c0.5-0.7,0.7-1.5,0.7-2.3c0-0.9-0.2-1.7-0.6-2.3c-0.4-0.6-0.9-1.1-1.6-1.5
		c-0.7-0.4-1.7-0.7-3.1-1c-1.4-0.3-2.3-0.7-2.7-1c-0.3-0.2-0.4-0.5-0.4-0.9c0-0.4,0.2-0.7,0.5-0.9c0.5-0.3,1.1-0.5,2-0.5
		c0.8,0,1.4,0.2,1.8,0.5c0.4,0.3,0.7,0.9,0.8,1.6l2.9-0.1c0-1.3-0.5-2.4-1.4-3.2c-0.9-0.8-2.3-1.2-4.1-1.2c-1.1,0-2,0.2-2.8,0.5
		c-0.8,0.3-1.4,0.8-1.8,1.5c-0.4,0.6-0.6,1.3-0.6,2c0,1.1,0.4,2.1,1.3,2.9c0.6,0.6,1.7,1,3.3,1.4c1.2,0.3,2,0.5,2.3,0.6
		c0.5,0.2,0.8,0.4,1,0.6c0.2,0.2,0.3,0.5,0.3,0.9c0,0.5-0.2,1-0.7,1.4c-0.5,0.4-1.2,0.6-2.1,0.6c-0.9,0-1.6-0.2-2.1-0.7
		c-0.5-0.4-0.9-1.1-1-2.1l-2.8,0.3C80.3,198,80.9,199.2,81.8,200 M57.8,189.5c-1.3,1.6-2.3,3.5-3.1,5.5c-0.8,2.1-1.2,4.1-1.2,6.1
		h2.6c0-1.3,0.2-2.7,0.6-4.3c0.4-1.6,1-3.1,1.8-4.5c0.8-1.4,1.6-2.5,2.4-3.3v-2h-9.4v2.5H57.8z M41.4,186.7h-2.2
		c-0.3,0.9-0.9,1.6-1.7,2.3c-0.8,0.7-1.6,1.1-2.3,1.3v2.5c1.4-0.4,2.5-1.1,3.5-2.1V201h2.7V186.7z"/>
</g>
</svg>
