<?xml version="1.0" encoding="UTF-8" standalone="no"?>
<!-- Generator: Adobe Illustrator 22.0.1, SVG Export Plug-In . SVG Version: 6.00 Build 0)  -->

<svg
   xmlns:dc="http://purl.org/dc/elements/1.1/"
   xmlns:cc="http://creativecommons.org/ns#"
   xmlns:rdf="http://www.w3.org/1999/02/22-rdf-syntax-ns#"
   xmlns:svg="http://www.w3.org/2000/svg"
   xmlns="http://www.w3.org/2000/svg"
   xmlns:xlink="http://www.w3.org/1999/xlink"
   xmlns:sodipodi="http://sodipodi.sourceforge.net/DTD/sodipodi-0.dtd"
   xmlns:inkscape="http://www.inkscape.org/namespaces/inkscape"
   version="1.1"
   id="Lager_1"
   x="0px"
   y="0px"
   viewBox="0 0 365.5 144.10001"
   xml:space="preserve"
   sodipodi:docname="sparvagsstafetten_logotyp_neg.svg"
   inkscape:version="0.92.4 (5da689c313, 2019-01-14)"
   width="365.5"
   height="144.10001"><metadata
   id="metadata3943"><rdf:RDF><cc:Work
       rdf:about=""><dc:format>image/svg+xml</dc:format><dc:type
         rdf:resource="http://purl.org/dc/dcmitype/StillImage" /><dc:title></dc:title></cc:Work></rdf:RDF></metadata><defs
   id="defs3941"><linearGradient
     inkscape:collect="always"
     id="linearGradient4756"><stop
       style="stop-color:#d30000;stop-opacity:1;"
       offset="0"
       id="stop4752" /><stop
       style="stop-color:#d30000;stop-opacity:0;"
       offset="1"
       id="stop4754" /></linearGradient><linearGradient
     inkscape:collect="always"
     xlink:href="#linearGradient4756"
     id="linearGradient4758"
     x1="0"
     y1="72.05"
     x2="365.5"
     y2="72.05"
     gradientUnits="userSpaceOnUse" /></defs><sodipodi:namedview
   pagecolor="#ffffff"
   bordercolor="#666666"
   borderopacity="1"
   objecttolerance="10"
   gridtolerance="10"
   guidetolerance="10"
   inkscape:pageopacity="0"
   inkscape:pageshadow="2"
   inkscape:window-width="1920"
   inkscape:window-height="1017"
   id="namedview3939"
   showgrid="false"
   inkscape:zoom="2.2364307"
   inkscape:cx="215.06665"
   inkscape:cy="-1.6133537"
   inkscape:window-x="-8"
   inkscape:window-y="-8"
   inkscape:window-maximized="1"
   inkscape:current-layer="Lager_1" />
<style
   type="text/css"
   id="style3868">
	.st0{fill:#FFFFFF;}
	.st1{clip-path:url(#SVGID_2_);fill:#FFFFFF;}
</style>

<g
   id="g3916"
   style="fill:#ffffff;fill-opacity:1;stroke:none;stroke-opacity:1">
	<g
   id="g3896"
   style="fill:#ffffff;fill-opacity:1;stroke:none;stroke-opacity:1">
		<path
   class="st0"
   d="m 37.8,2.9 c 9.2,0 17.5,3.9 17.5,11.8 0,5.9 -5,9.8 -9.5,9.8 -3.9,0 -7.6,-2.8 -6.5,-7.4 3.1,-0.6 4.7,-3.2 4.7,-6 C 44,5.9 40.4,3.6 36.4,3.6 31.4,3.6 26,6.9 26,12.3 26,24.1 54.8,23.2 54.8,42.8 54.8,56.9 40.1,68.6 22.5,68.6 7.4,68.6 0,59.8 0,50.7 0,42.1 6.7,35.3 15.7,35.3 c 7.4,0 15.4,4.4 15.4,12.2 0,5.2 -3.9,9.5 -10,9.5 -4.4,0 -8.2,-3.6 -6.8,-8.3 3.7,-0.1 6.6,-3.2 6.6,-7.3 0,-4 -3.6,-5.6 -6.4,-5.6 C 8.1,36 3.2,42.9 3.2,50.5 c 0,8.9 6.6,17.3 20.2,17.3 12.8,0 20.4,-7.6 20.4,-15.1 C 43.8,38.4 13.1,37.2 13.1,20.7 13,9.1 26.1,2.9 37.8,2.9"
   id="path3880"
   style="fill:#ffffff;fill-opacity:1;stroke:none;stroke-opacity:1"
   inkscape:connector-curvature="0" />
		<path
   class="st0"
   d="m 77.1,24.2 -3.9,17.5 0.3,0.1 c 4.3,-20.1 10.7,-25.1 18.1,-25.1 7.3,0 11.4,4.6 11.4,13 0,12.5 -9.3,28.9 -25.5,28.9 -2.2,0 -3.6,-0.2 -5.2,-0.7 l 0.2,-0.2 c 9.6,-0.5 16.7,-20.5 16.8,-32.9 0,-3.2 -0.7,-5.6 -2.3,-5.6 -4.3,0 -9.7,9 -12.5,22.8 L 71,59 c -1.2,5.6 -2.4,15.3 0.2,16.6 L 71,75.8 C 65.4,76.6 54.7,76.3 56.8,63.9 l 6.9,-41.3 c 0.2,-1.5 -1,-2.7 -3.2,-2 l -0.2,-0.2 c 2.7,-1.3 8.1,-3 11.8,-3 4.3,0 6.1,1.6 5,6.8"
   id="path3882"
   style="fill:#ffffff;fill-opacity:1;stroke:none;stroke-opacity:1"
   inkscape:connector-curvature="0" />
		<path
   class="st0"
   d="m 127,8.3 c 0,3.2 2,5.8 4.8,5.8 3.5,0 6.7,-3.5 6.7,-7.6 0,-3.2 -2,-5.7 -4.8,-5.7 -3.5,0 -6.7,3.4 -6.7,7.5 m 13.8,-1.8 c 0,4.6 -4.4,8.4 -9.2,8.4 -3.9,0 -6.8,-2.9 -6.8,-6.6 0,-4.6 4.4,-8.3 9.2,-8.3 3.9,0 6.8,2.9 6.8,6.5 m -21.9,42.2 c 0,3.2 0.7,6.1 2.7,6.1 4.7,0 9.8,-12 11.8,-23.4 l 0.8,-4.7 c 1.2,-6.3 0.5,-8.7 -3.2,-8.7 -6.4,0 -12.1,18.1 -12.1,30.7 m 26.4,-7.1 c -1.2,6.6 -1.9,15.3 1.5,16.6 l -0.2,0.2 c -1.8,0.4 -3.6,0.5 -5.5,0.5 -6.6,0 -12.4,-2.8 -10,-12.4 L 134,34.6 133.7,34.5 C 128.8,53.8 122.9,59 115.9,59 c -8.1,0 -11,-7.2 -11,-14.3 0,-12.3 11,-27.3 25.2,-27.3 7.6,0 13.7,6.6 19.3,0.3 z"
   id="path3884"
   style="fill:#ffffff;fill-opacity:1;stroke:none;stroke-opacity:1"
   inkscape:connector-curvature="0" />
		<path
   class="st0"
   d="m 166.4,58.2 -0.2,0.2 c -1.4,0.4 -3,0.6 -4.6,0.6 -5.3,0 -10.7,-2.6 -9,-12.1 l 4.3,-24.3 c 0.2,-1.5 -1,-2.7 -3.2,-2 l -0.2,-0.2 c 2.7,-1.3 8.1,-3 11.8,-3 4.4,0 6.2,1.6 5.1,6.9 l -4.2,17.5 0.3,0.1 c 5.2,-19.8 10.3,-25.1 18.2,-25.1 6.9,0 9.9,4.3 9.9,9 0,5.2 -3.9,10.3 -10.7,10.3 -3.5,0 -6.8,-2.2 -6.3,-6.8 2.9,0 5.7,-2.7 5.7,-6.3 0,-2.4 -1.2,-3.7 -3,-3.7 -4.8,0 -9.6,9.4 -12.9,22.8 -1.5,5.2 -3.6,14.8 -1,16.1"
   id="path3886"
   style="fill:#ffffff;fill-opacity:1;stroke:none;stroke-opacity:1"
   inkscape:connector-curvature="0" />
		<path
   class="st0"
   d="m 208.4,46.6 c -1,6.6 -1,9.5 2.3,9.5 7,0 20.2,-13 20.2,-22.9 0,-3.3 -1.7,-5.6 -4.7,-5.6 -2.3,0 -4.5,1.2 -5.4,3.4 -3.9,-0.2 -5.9,-2.6 -5.9,-5.9 0,-5.3 4,-8.5 8.3,-8.5 4.7,0 9.5,3.7 9.5,12 0,16.1 -15.4,30.2 -29.3,30.2 -7,0 -10.3,-3.7 -9,-11.3 l 4,-25 c 0.2,-1.5 -1,-2.7 -3.2,-2 L 195,20.3 c 2.7,-1.3 8.1,-3 11.8,-3 4.4,0 5.9,1.6 5.1,6.9 z"
   id="path3888"
   style="fill:#ffffff;fill-opacity:1;stroke:none;stroke-opacity:1"
   inkscape:connector-curvature="0" />
		<path
   class="st0"
   d="m 272.7,9.3 c 0,2.6 -2.2,4.7 -4.7,4.7 -1.9,0 -3.4,-1.5 -3.4,-3.6 0,-2.5 2.3,-4.6 4.7,-4.6 2,-0.1 3.4,1.5 3.4,3.5 m -15.3,0 c 0,2.6 -2.2,4.7 -4.7,4.7 -1.9,0 -3.4,-1.5 -3.4,-3.6 0,-2.5 2.3,-4.6 4.7,-4.6 2,-0.1 3.4,1.5 3.4,3.5 m -9.8,39.4 c 0,3.2 0.7,6.1 2.7,6.1 4.7,0 9.8,-12 11.8,-23.4 l 0.9,-4.7 c 1.2,-6.3 0.5,-8.7 -3.2,-8.7 -6.5,0 -12.2,18.1 -12.2,30.7 M 274,41.6 c -1.2,6.6 -1.9,15.3 1.5,16.6 l -0.2,0.2 c -1.8,0.4 -3.6,0.5 -5.5,0.5 -6.6,0 -12.4,-2.8 -10,-12.4 l 2.9,-11.9 -0.3,-0.1 C 257.5,53.8 251.6,59 244.6,59 c -8.1,0 -11,-7.2 -11,-14.3 0,-12.3 11,-27.3 25.2,-27.3 7.6,0 13.7,6.6 19.3,0.3 z"
   id="path3890"
   style="fill:#ffffff;fill-opacity:1;stroke:none;stroke-opacity:1"
   inkscape:connector-curvature="0" />
		<path
   class="st0"
   d="m 294.4,48.7 c 0,3.2 0.7,6.1 2.7,6.1 4.7,0 9.8,-12 11.8,-23.4 l 0.8,-4.7 c 1.2,-6.3 0.5,-8.7 -3.2,-8.7 -6.4,0 -12.1,18.1 -12.1,30.7 m 24.2,9.2 c -1.7,10.6 -9.7,17.9 -24.3,17.9 -6.4,0 -15.3,-1.4 -15.3,-8.4 0,-4.3 3.5,-7.5 7.9,-7.5 3.2,0 6.6,2.2 6.2,6.4 -2.9,0.3 -4.3,2.3 -4.3,4.3 0,2.2 1.7,4.5 5.9,4.5 6,0 7.9,-4.5 9.3,-11.7 l 5.6,-28.8 -0.3,-0.1 c -5,19.3 -10.9,24.5 -17.9,24.5 -8.1,0 -11,-7.2 -11,-14.3 0,-12.3 11,-27.3 25.2,-27.3 7.6,0 13.7,6.6 19.3,0.3 z"
   id="path3892"
   style="fill:#ffffff;fill-opacity:1;stroke:none;stroke-opacity:1"
   inkscape:connector-curvature="0" />
		<path
   class="st0"
   d="m 325.3,50.9 c 0,-3.9 2.9,-7.4 7.2,-7.4 3,0 6,1.9 5.6,5.6 -2.2,0.8 -3.6,2.9 -3.6,5.1 0,2.5 1.6,4.1 7.2,4.1 3.6,0 11.8,-0.8 11.8,-5.9 0,-7.6 -24.1,-7.3 -24.1,-20.2 0,-10.7 11.9,-14.8 21.5,-14.8 6.4,0 14.6,1.5 14.6,7.3 0,3.5 -2.6,6.6 -6.4,6.6 -2.6,0 -5.1,-1.8 -4.7,-5.2 1.7,-0.6 3.2,-2.2 3.2,-4.2 0,-2.6 -3,-3.9 -7.6,-3.9 -3.5,0 -8.7,1.5 -8.7,5.9 0,7.7 23.7,6.2 23.7,19.1 0,11.2 -13.4,15.8 -23.8,15.8 -7.1,0.2 -15.9,-1.3 -15.9,-7.9"
   id="path3894"
   style="fill:#ffffff;fill-opacity:1;stroke:none;stroke-opacity:1"
   inkscape:connector-curvature="0" />
	</g>
	<g
   id="g3914"
   style="fill:#ffffff;fill-opacity:1;stroke:none;stroke-opacity:1">
		<path
   class="st0"
   d="m 30.7,117.6 c 0,-3.9 2.9,-7.4 7.2,-7.4 3,0 6,1.9 5.6,5.6 -2.2,0.8 -3.6,2.9 -3.6,5.1 0,2.5 1.6,4.1 7.2,4.1 3.6,0 11.8,-0.8 11.8,-5.9 0,-7.6 -24.1,-7.3 -24.1,-20.2 C 34.7,88.2 46.6,84 56.2,84 c 6.4,0 14.6,1.5 14.6,7.3 0,3.5 -2.6,6.6 -6.4,6.6 -2.6,0 -5.1,-1.8 -4.7,-5.2 1.7,-0.6 3.2,-2.2 3.2,-4.2 0,-2.6 -3,-3.9 -7.6,-3.9 -3.5,0 -8.7,1.5 -8.7,5.9 0,7.7 23.7,6.2 23.7,19.1 0,11.2 -13.4,15.8 -23.8,15.8 -7,0.3 -15.8,-1.2 -15.8,-7.8"
   id="path3898"
   style="fill:#ffffff;fill-opacity:1;stroke:none;stroke-opacity:1"
   inkscape:connector-curvature="0" />
		<path
   class="st0"
   d="m 93.2,84.6 h 5.4 l -0.2,0.8 h -5.3 l -3.9,23.3 c -1.1,6.6 -1.9,15.3 1.5,16.6 l -0.2,0.2 c -1.1,0.2 -2.4,0.3 -3.8,0.3 -5.9,0 -13.5,-2.2 -11.8,-12.2 L 79.3,85.3 H 75.8 L 76,84.5 c 11.1,0 17.1,-3.7 18.9,-14.7 h 0.7 z"
   id="path3900"
   style="fill:#ffffff;fill-opacity:1;stroke:none;stroke-opacity:1"
   inkscape:connector-curvature="0" />
		<path
   class="st0"
   d="m 110.3,115.4 c 0,3.2 0.7,6.1 2.7,6.1 4.7,0 9.8,-12 11.8,-23.4 l 0.8,-4.7 c 1.2,-6.3 0.5,-8.7 -3.2,-8.7 -6.4,0 -12.1,18 -12.1,30.7 m 26.4,-7.1 c -1.2,6.6 -1.9,15.3 1.5,16.6 l -0.2,0.2 c -1.8,0.4 -3.6,0.5 -5.5,0.5 -6.6,0 -12.4,-2.8 -10,-12.4 l 2.9,-11.9 -0.3,-0.1 c -4.9,19.2 -10.8,24.4 -17.8,24.4 -8.1,0 -11,-7.2 -11,-14.3 0,-12.3 11,-27.3 25.2,-27.3 7.6,0 13.7,6.6 19.3,0.3 z"
   id="path3902"
   style="fill:#ffffff;fill-opacity:1;stroke:none;stroke-opacity:1"
   inkscape:connector-curvature="0" />
		<path
   class="st0"
   d="m 149.9,84.6 c 1.8,-10.7 3.4,-19.8 15.2,-19.8 6.9,0 11.1,3.5 11.1,8.4 0,4.8 -3.3,8.6 -9.3,8.6 -4.4,0 -8.5,-4.1 -6.4,-8.6 2.6,0.5 4.9,-1.2 4.9,-3.8 0,-1.9 -0.7,-3.6 -3,-3.6 -3.4,0 -7,3.6 -7,7.8 0,6.6 7.9,8 7.2,11.1 h 6.5 l -0.2,0.8 h -5.3 l -6.1,38.8 c -1.5,9.3 -6.5,19.8 -16.2,19.8 -6.6,0 -10.4,-3.5 -10.4,-8.3 0,-5.7 4.5,-8.1 8.7,-8.1 4,0 7.9,2.6 7.3,7.9 -2.9,-0.2 -4.5,1.2 -4.5,3.6 0,1.7 1,2.9 2.9,2.9 3.5,0 4.6,-3.2 4.6,-6.6 0,-6.6 -6.8,-8.1 -5.7,-15 l 5.6,-34.9 h -4.1 l 0.2,-0.8 h 4 z"
   id="path3904"
   style="fill:#ffffff;fill-opacity:1;stroke:none;stroke-opacity:1"
   inkscape:connector-curvature="0" />
		<path
   class="st0"
   d="m 196.7,89.7 c 0,-3 -1.9,-5 -4.5,-5 -5.9,0 -10.2,9.3 -10.7,17.1 -0.5,8.2 2.5,15.4 11,15.4 3.6,0 8.3,-1.2 11.9,-5.5 l 0.5,0.2 c -4.9,8 -13,13.7 -22,13.7 -9.3,0 -16,-6.2 -16,-16.5 0,-13.2 11.3,-25.1 25.9,-25.1 6,0 14.8,1.5 14.8,8.6 0,5.7 -6.6,13.2 -25.6,8.2 l 0.1,-0.3 c 10.5,0.6 14.6,-5.3 14.6,-10.8"
   id="path3906"
   style="fill:#ffffff;fill-opacity:1;stroke:none;stroke-opacity:1"
   inkscape:connector-curvature="0" />
		<path
   class="st0"
   d="m 251.4,84.6 h 5.4 l -0.2,0.8 h -5.3 l -3.9,23.3 c -1.1,6.6 -1.9,15.3 1.5,16.6 l -0.2,0.2 c -1.1,0.2 -2.4,0.3 -3.8,0.3 -5.9,0 -13.5,-2.2 -11.8,-12.2 l 4.4,-28.3 h -8.6 l -3.9,23.3 c -1.1,6.6 -1.9,15.3 1.5,16.6 l -0.2,0.2 c -1.1,0.2 -2.4,0.3 -3.8,0.3 -5.9,0 -13.5,-2.2 -11.8,-12.2 l 4.4,-28.3 h -3.5 l 0.2,-0.8 c 11.1,0 17.1,-3.7 18.9,-14.7 h 0.7 L 229,84.6 h 5.4 c 13,0 17.4,-5.9 19.1,-16.9 h 0.7 z"
   id="path3908"
   style="fill:#ffffff;fill-opacity:1;stroke:none;stroke-opacity:1"
   inkscape:connector-curvature="0" />
		<path
   class="st0"
   d="m 284.2,89.7 c 0,-3 -1.9,-5 -4.5,-5 -5.9,0 -10.2,9.3 -10.7,17.1 -0.5,8.2 2.5,15.4 11,15.4 3.6,0 8.3,-1.2 11.9,-5.5 l 0.5,0.2 c -4.9,8 -13,13.7 -22,13.7 -9.3,0 -16,-6.2 -16,-16.5 0,-13.2 11.3,-25.1 25.9,-25.1 6,0 14.8,1.5 14.8,8.6 0,5.7 -6.6,13.2 -25.6,8.2 l 0.1,-0.3 c 10.5,0.6 14.6,-5.3 14.6,-10.8"
   id="path3910"
   style="fill:#ffffff;fill-opacity:1;stroke:none;stroke-opacity:1"
   inkscape:connector-curvature="0" />
		<path
   class="st0"
   d="m 302.4,89.3 c 0.2,-1.5 -1,-2.7 -3.2,-2 L 299,87.1 c 2.7,-1.3 8.1,-3 11.8,-3 4.4,0 6.2,1.6 5.1,6.9 l -4.2,17.5 0.3,0.1 c 5.2,-19.8 12.9,-24.4 19.8,-24.4 9.7,0 9,8 8.1,13.3 l -1.9,11 c -1.2,6.6 -1.9,15.3 1.5,16.6 l -0.2,0.2 c -1.9,0.4 -3.8,0.6 -5.6,0.6 -6.4,0 -11.7,-2.8 -10.2,-12.5 l 3.1,-19.1 c 0.5,-3.6 0.5,-5.9 -1.3,-5.9 -4.3,0 -9.7,8.9 -12.5,20.4 -1.3,5.3 -3.5,15 -0.8,16.3 l -0.2,0.2 c -2.5,0.4 -4.6,0.6 -6.5,0.6 -6.1,0 -8.9,-2.6 -7.2,-12.1 z"
   id="path3912"
   style="fill:#ffffff;fill-opacity:1;stroke:none;stroke-opacity:1"
   inkscape:connector-curvature="0" />
	</g>
</g>


</svg>